<svg xmlns="http://www.w3.org/2000/svg" width="254.506" height="137.5" viewBox="0 0 254.506 137.5">
  <g id="Group_11" data-name="Group 11" transform="translate(-1307.494 -132.5)">
    <g id="Group_9" data-name="Group 9" transform="translate(151 99)">
      <text id="Null_Pointer" data-name="Null
Pointer" transform="translate(1257 108)" fill="#393939" font-size="45" font-family="SegoeUI-Bold, Segoe UI" font-weight="700"><tspan x="0" y="0">Null</tspan><tspan fill="#ff9200"><tspan x="0" y="36">Pointer</tspan></tspan></text>
      <text id="Videos" transform="translate(1260 166)" fill="#393939" font-size="18" font-family="SegoeUI-Bold, Segoe UI" font-weight="700" letter-spacing="0.22em"><tspan x="0" y="0">Videos</tspan></text>
    </g>
    <g id="Group_10" data-name="Group 10" transform="translate(580 -68.783)">
      <path id="Path_1" data-name="Path 1" d="M8.785-.717,20.453,10.652,4.3,24.413Z" transform="translate(781 202)" fill="#ff9200"/>
      <path id="Path_2" data-name="Path 2" d="M2.206,6.736,11.4-.443,9.426,20.468.237,26.1Z" transform="translate(770.753 210.946)" fill="#ff9200"/>
      <path id="Path_3" data-name="Path 3" d="M1.716,5.74,10.445-.891,8.8,17.552,1.716,21.469Z" transform="translate(757.502 224.911)" fill="#ff9200"/>
      <path id="Path_4" data-name="Path 4" d="M.237,5.379,6.609.156V15.517L.237,19.2Z" transform="translate(749.161 234.933)" fill="#ff9200"/>
      <path id="Path_5" data-name="Path 5" d="M.237,4.779,5.623.156v13.6L.237,17.017Z" transform="translate(741.083 243.694)" fill="#ff9200"/>
      <path id="Path_6" data-name="Path 6" d="M.237,4.316,4.932.156V10.27H.237Z" transform="translate(733.785 250.845)" fill="#ff9200"/>
      <path id="Path_7" data-name="Path 7" d="M.237,2.741,4.83.156v4.27H.237Z" transform="translate(727.263 257.488)" fill="#ff9200"/>
      <path id="Path_8" data-name="Path 8" d="M0,0H5.752l.066,55.975L-.006,54.927Z" transform="translate(727.5 261.116)" fill="#ff9200"/>
      <path id="Path_9" data-name="Path 9" d="M.54,5.789,78,0V8.068L.54,12.663Z" transform="translate(727 255.503)" fill="#ff9200"/>
      <path id="Path_10" data-name="Path 10" d="M0,0H10V71L-.016,68.886Z" transform="translate(795 263)" fill="#ff9200"/>
      <path id="Path_11" data-name="Path 11" d="M3.1.511,39.259,8.644,38.7,17.056-.9,7.626Z" transform="translate(757 315)" fill="#ff9200"/>
      <path id="Path_12" data-name="Path 12" d="M.421-.857,14.038,3.465l-.007,6.976L-.331,7.566Z" transform="translate(731 309)" fill="#ff9200"/>
      <path id="Path_13" data-name="Path 13" d="M15.406-1.494,5.022,17.441,1.041,10.406Z" transform="translate(740 302)" fill="#ff9200"/>
      <path id="Path_14" data-name="Path 14" d="M3.732-.374,9.886,2.944-.371,19.537l-6.154-3.379Z" transform="translate(759 293)" fill="#ff9200"/>
      <path id="Path_15" data-name="Path 15" d="M23.118,2.851,20.644,30.666-.413,19.021Z" transform="translate(755 270)" fill="#ff9200"/>
    </g>
  </g>
</svg>
