<svg xmlns="http://www.w3.org/2000/svg" width="279.364" height="152.337" viewBox="0 0 279.364 152.337">
  <g id="Group_12" data-name="Group 12" transform="translate(-1307.494 -132.5)">
    <g id="Group_9" data-name="Group 9" transform="translate(1422.859 168.657)">
      <text id="Null_Pointer" data-name="Null
Pointer" transform="translate(0 46)" fill="#f8f8f8" font-size="48" font-family="SegoeUI-Bold, Segoe UI" font-weight="700"><tspan x="0" y="0">Null</tspan><tspan fill="#ff9200"><tspan x="0" y="38">Pointer</tspan></tspan></text>
      <text id="Videos" transform="translate(3.444 111.419)" fill="#f8f8f8" font-size="16" font-family="SegoeUI-Bold, Segoe UI" font-weight="700" letter-spacing="0.22em"><tspan x="0" y="0">Videos</tspan></text>
    </g>
    <g id="Group_10" data-name="Group 10" transform="translate(1307.494 132.5)">
      <path id="Path_1" data-name="Path 1" d="M9.449-.717,22.841,12.332,4.3,28.128Z" transform="translate(62.051 0.717)" fill="#ff9200"/>
      <path id="Path_2" data-name="Path 2" d="M2.5,7.8,13.045-.443l-2.26,24L.237,30.025Z" transform="translate(49.689 11.026)" fill="#ff9200"/>
      <path id="Path_3" data-name="Path 3" d="M1.716,6.72,11.735-.891,9.85,20.278l-8.135,4.5Z" transform="translate(34.698 26.989)" fill="#ff9200"/>
      <path id="Path_4" data-name="Path 4" d="M.237,6.151,7.551.156V17.788L.237,22.02Z" transform="translate(24.905 38.647)" fill="#ff9200"/>
      <path id="Path_5" data-name="Path 5" d="M.237,5.462,6.419.156V15.764L.237,19.509Z" transform="translate(15.633 48.704)" fill="#ff9200"/>
      <path id="Path_6" data-name="Path 6" d="M.237,4.931,5.626.156v11.61H.237Z" transform="translate(7.256 56.912)" fill="#ff9200"/>
      <path id="Path_7" data-name="Path 7" d="M.237,3.123,5.509.156v4.9H.237Z" transform="translate(-0.231 64.537)" fill="#ff9200"/>
      <path id="Path_8" data-name="Path 8" d="M0,0H6.6L6.68,64.25l-6.685-1.2Z" transform="translate(0.006 68.678)" fill="#ff9200"/>
      <path id="Path_9" data-name="Path 9" d="M.54,6.645,89.452,0V9.261L.54,14.535Z" transform="translate(-0.488 62.235)" fill="#ff9200"/>
      <path id="Path_10" data-name="Path 10" d="M0,0H11.481V81.5L-.016,79.07Z" transform="translate(77.483 70.841)" fill="#ff9200"/>
      <path id="Path_11" data-name="Path 11" d="M3.689.511,45.2,9.846,44.558,19.5-.9,8.678Z" transform="translate(33.735 130.604)" fill="#ff9200"/>
      <path id="Path_12" data-name="Path 12" d="M.532-.857,16.163,4.1l-.008,8.007L-.331,8.811Z" transform="translate(3.975 123.515)" fill="#ff9200"/>
      <path id="Path_13" data-name="Path 13" d="M17.53-1.494,5.61,20.24,1.041,12.166Z" transform="translate(14.508 115.386)" fill="#ff9200"/>
      <path id="Path_14" data-name="Path 14" d="M5.249-.374l7.064,3.809L.539,22.48-6.525,18.6Z" transform="translate(35.199 105.221)" fill="#ff9200"/>
      <path id="Path_15" data-name="Path 15" d="M26.6,2.851,23.757,34.778-.413,21.411Z" transform="translate(31.511 79.297)" fill="#ff9200"/>
    </g>
  </g>
</svg>
