<svg xmlns="http://www.w3.org/2000/svg" width="67.889" height="80.662" viewBox="0 0 67.889 80.662"><path d="M15.3.591l3.63,6.478c-6.742,3.367-11.406,9.82-11.406,17.362h43.53c0-7.511-4.663-13.989-11.4-17.362L43.281.591s.26-.26-.26-.519c-.26-.26-.519.26-.519.26l-3.889,6.48a23.222,23.222,0,0,0-19.176,0L15.555.334a.9.9,0,0,0-.519-.257A.907.907,0,0,0,15.3.6Zm3.655,12.694a2.228,2.228,0,0,1,2.072,2.072,2.185,2.185,0,0,1-2.072,2.072,2.072,2.072,0,1,1,0-4.144Zm20.729,0a2.228,2.228,0,0,1,2.072,2.072,2.185,2.185,0,0,1-2.072,2.072,2.072,2.072,0,1,1,0-4.144ZM7.262,27.022V60.192c0,1.555,2.072,3.887,3.63,3.887h5.182v11.4a4.942,4.942,0,0,0,4.663,5.182A4.94,4.94,0,0,0,25.4,75.479V64.074h7.511v11.4a4.942,4.942,0,0,0,4.663,5.182,4.94,4.94,0,0,0,4.663-5.182v-11.4h5.182c1.555,0,3.63-2.072,3.63-3.887V27.022Z" transform="translate(4.658 0.001)" fill="#a4c639"/><path d="M7.2,10.412a4.94,4.94,0,0,1,4.663,5.182V35.287A4.942,4.942,0,0,1,7.2,40.47a4.94,4.94,0,0,1-4.663-5.182V15.594A4.942,4.942,0,0,1,7.2,10.412Z" transform="translate(-2.533 15.834)" fill="#a4c639"/><path d="M7.2,10.412a4.94,4.94,0,0,1,4.663,5.182V35.287A4.942,4.942,0,0,1,7.2,40.47a4.94,4.94,0,0,1-4.663-5.182V15.594A4.942,4.942,0,0,1,7.2,10.412Z" transform="translate(56.03 15.834)" fill="#a4c639"/></svg>