<svg xmlns="http://www.w3.org/2000/svg" width="63.703" height="76.095" viewBox="0 0 63.703 76.095"><path d="M63.7,55.561a44.185,44.185,0,0,1-5.625,11.433q-5.9,8.962-11.752,8.962a21.134,21.134,0,0,1-6.4-1.463,20.226,20.226,0,0,0-6.905-1.463,17.6,17.6,0,0,0-6.493,1.509A16.52,16.52,0,0,1,20.486,76.1q-6.95,0-13.764-11.843Q0,52.314,0,41.247q0-10.427,5.168-17.1a15.869,15.869,0,0,1,12.987-6.584,30.418,30.418,0,0,1,8.093,1.372A29.449,29.449,0,0,0,32.559,20.3a22.873,22.873,0,0,0,6.54-1.556,25.822,25.822,0,0,1,7.912-1.556,16.716,16.716,0,0,1,9.74,2.972,23.614,23.614,0,0,1,4.756,4.572,29.639,29.639,0,0,0-5.212,5.4A16.287,16.287,0,0,0,53.322,39.6a17.415,17.415,0,0,0,3.156,10.2A13.907,13.907,0,0,0,63.7,55.559ZM46.506,1.921A17.438,17.438,0,0,1,45.18,8.14a18.763,18.763,0,0,1-4.253,6.312,12.966,12.966,0,0,1-4.94,3.293,25.545,25.545,0,0,1-4.756.778A20.843,20.843,0,0,1,34.8,6.77Q38.184,1.875,46.233,0a4.239,4.239,0,0,1,.114.5,4.24,4.24,0,0,0,.114.5q0,.184.023.457t.023.457Z" fill="#fff"/></svg>