<svg xmlns="http://www.w3.org/2000/svg" width="78.367" height="88.078" viewBox="0 0 78.367 88.078"><path d="M78.363,25.9a7.777,7.777,0,0,0-.958-3.913A7.482,7.482,0,0,0,74.57,19.22Q58.921,10.2,43.265,1.186a7.685,7.685,0,0,0-8.329.082C30.783,3.717,9.993,15.628,3.8,19.217A7.236,7.236,0,0,0,0,25.892Q0,44.039,0,62.186a7.8,7.8,0,0,0,.916,3.838,7.456,7.456,0,0,0,2.878,2.837c6.2,3.588,26.989,15.5,31.141,17.948a7.686,7.686,0,0,0,8.331.082Q58.91,77.859,74.573,68.857a7.459,7.459,0,0,0,2.878-2.837,7.815,7.815,0,0,0,.916-3.838s0-24.189,0-36.287" transform="translate(0 0)" fill="#a179dc"/><path d="M41.375,143.241l-38.387,22.1a7.456,7.456,0,0,0,2.878,2.837c6.2,3.588,26.989,15.5,31.141,17.948a7.686,7.686,0,0,0,8.331.082q15.645-9.033,31.308-18.035a7.459,7.459,0,0,0,2.878-2.837l-38.148-22.1" transform="translate(-2.072 -99.32)" fill="#280068"/><path d="M167.242,75.6a7.777,7.777,0,0,0-.958-3.913l-38.1,21.939,38.148,22.1a7.822,7.822,0,0,0,.916-3.838s0-24.189,0-36.287" transform="translate(-88.878 -49.709)" fill="#390091"/><path d="M187.879,116.294v4.131h4.131v-4.131h2.066v4.131h4.131v2.066h-4.131v4.131h4.131v2.066h-4.131v4.131H192.01v-4.131h-4.131v4.131h-2.066v-4.131h-4.131v-2.066h4.131v-4.131h-4.131v-2.066h4.131v-4.131Zm4.131,6.2h-4.131v4.131h4.131Z" transform="translate(-125.974 -80.636)" fill="#fff"/><path d="M62.586,48.626A29.118,29.118,0,0,1,87.809,63.177l-.049-.084-12.678,7.3a14.5,14.5,0,0,0-12.331-7.142h-.165A14.5,14.5,0,1,0,75.225,84.867l-.06.106,12.66,7.334A29.12,29.12,0,0,1,62.91,106.882l-.324,0a29.129,29.129,0,1,1,0-58.258Z" transform="translate(-23.198 -33.716)" fill="#fff"/></svg>