<svg xmlns="http://www.w3.org/2000/svg" width="70.602" height="80.071" viewBox="0 0 70.602 80.071"><g transform="translate(0 0)"><path d="M82.213,15.653,75.781,87.709,46.869,95.724l-28.833-8L11.611,15.653Z" transform="translate(-11.611 -15.653)" fill="#264de4"/><path d="M39.826,88.415l23.363-6.477,5.5-61.575H39.826Z" transform="translate(-4.525 -14.471)" fill="#2965f1"/><path d="M43.955,41.727H23.384l.792,8.839H43.955Z" transform="translate(-8.654 -9.106)" fill="#ebebeb"/><path d="M44.275,27.428H22.111l.8,8.839h21.36Z" transform="translate(-8.974 -12.696)" fill="#ebebeb"/><path d="M24.333,52.323,25.571,66.2l18.105,5.026.041-.011v-9.2l-.039.01-9.844-2.658-.629-7.049H24.333Z" transform="translate(-8.416 -6.444)" fill="#ebebeb"/><path d="M50.685,54.156,49.659,65.619,39.8,68.28v9.2l18.12-5.022.133-1.493,2.077-23.269.216-2.373,1.6-17.89H39.8v8.839H52.256l-.8,9.051H39.8v8.839Z" transform="translate(-4.531 -12.696)" fill="#fff"/></g></svg>