<svg xmlns="http://www.w3.org/2000/svg" width="71.406" height="82.594" viewBox="0 0 71.406 82.594"><g transform="translate(0 0)"><path d="M2743.221,2455h68.553a1.436,1.436,0,0,1,1.424,1.444.539.539,0,0,1-.02.176l-5.579,69.86a1.424,1.424,0,0,1-1.034,1.268l-28.619,9.774a1.414,1.414,0,0,1-.9,0c-9.579-3.2-19.138-6.536-28.678-9.793a1.421,1.421,0,0,1-.975-1.249l-5.6-69.938a1.421,1.421,0,0,1,1.326-1.521Zm26.922,53.727v-3.278a1.42,1.42,0,0,0-1.424-1.424h-8.408a1.42,1.42,0,0,0-1.424,1.424v10.476a1.441,1.441,0,0,0,1.093,1.385l17.616,5.541a1.353,1.353,0,0,0,1.034-.078l16.231-6.653a1.463,1.463,0,0,0,.878-1.19h0l2.282-26.024a1.435,1.435,0,0,0-1.307-1.541H2768l-.371-7h30.258a1.432,1.432,0,0,0,1.424-1.424v-8.389a1.42,1.42,0,0,0-1.424-1.424h-40.617a1.419,1.419,0,0,0-1.424,1.424l.019.176,1.385,26.532a1.431,1.431,0,0,0,1.424,1.346v.02h27.195l-.819,9.364-7.472,3.082Zm-2.868,1.034Zm21.6-12.583a1.437,1.437,0,0,0-1.444-1.424h-27.39l-1.268-23.781h37.691v5.541h-30.414a1.423,1.423,0,0,0-1.346,1.5l.507,9.754v.019a1.42,1.42,0,0,0,1.424,1.424h28.4l-2.068,23.605-15.021,6.165-16.192-5.111v-8h5.521v2.887a1.458,1.458,0,0,0,1.014,1.365l8.916,2.809a1.527,1.527,0,0,0,.975-.039l8.643-3.551a1.4,1.4,0,0,0,.995-1.249l1.034-11.764Z" transform="translate(-2741.793 -2455)" fill="#f16528"/></g></svg>