<svg xmlns="http://www.w3.org/2000/svg" width="85.102" height="85.102" viewBox="0 0 85.102 85.102"><rect width="85.102" height="85.102" transform="translate(0 0)" fill="#f7df1e"/><path d="M200.725,313.826c1.718,2.806,3.954,4.868,7.908,4.868,3.322,0,5.444-1.66,5.444-3.954,0-2.749-2.18-3.723-5.836-5.322l-2-.86c-5.785-2.465-9.628-5.552-9.628-12.079,0-6.012,4.581-10.589,11.74-10.589,5.1,0,8.761,1.774,11.4,6.419l-6.243,4.008c-1.374-2.465-2.857-3.435-5.159-3.435-2.348,0-3.836,1.49-3.836,3.435,0,2.4,1.49,3.379,4.929,4.868l2,.859c6.811,2.921,10.657,5.9,10.657,12.594,0,7.218-5.67,11.172-13.284,11.172-7.445,0-12.255-3.548-14.609-8.2Zm-28.319.695c1.259,2.234,2.4,4.123,5.159,4.123,2.634,0,4.3-1.031,4.3-5.037V286.348h8.017v27.367c0,8.3-4.867,12.079-11.971,12.079-6.419,0-10.136-3.322-12.026-7.323Z" transform="translate(-143.627 -247.425)"/></svg>