<svg xmlns="http://www.w3.org/2000/svg" width="70.41" height="95.488" viewBox="0 0 70.41 95.488"><path d="M26.756,39.471s-3.67,2.232,2.551,2.871c7.49.955,11.48.8,19.769-.8A29.9,29.9,0,0,0,54.337,44.1c-18.65,7.973-42.254-.477-27.584-4.625ZM24.368,29.107s-3.987,3.029,2.232,3.67A75.515,75.515,0,0,0,52.114,31.5a9.728,9.728,0,0,0,3.826,2.39c-22.482,6.7-47.673.639-31.571-4.783ZM68.374,47.28s2.709,2.232-3.029,3.987c-10.683,3.193-44.8,4.148-54.369,0C7.628,49.834,14,47.76,16.049,47.441a15.944,15.944,0,0,1,3.193-.477c-3.67-2.551-24.394,5.261-10.522,7.49,38.106,6.219,69.516-2.71,59.63-7.174ZM28.48,18.263s-17.379,4.148-6.219,5.58c4.783.639,14.189.477,22.959-.158,7.174-.639,14.353-1.91,14.353-1.91a38.425,38.425,0,0,0-4.306,2.232c-17.7,4.625-51.659,2.551-41.931-2.232a33.049,33.049,0,0,1,15.147-3.506ZM59.574,35.642c17.856-9.25,9.567-18.173,3.826-17.06a10.078,10.078,0,0,0-2.074.639,2.733,2.733,0,0,1,1.593-1.274C74.24,13.96,83.168,29.9,59.249,36.12a2,2,0,0,0,.319-.477ZM30.241,60.833c17.218,1.116,43.528-.639,44.163-8.773,0,0-1.274,3.193-14.189,5.58-14.669,2.709-32.845,2.387-43.528.639,0,0,2.232,1.91,13.553,2.551Z" transform="translate(-3.994 34.351)" fill="#4e7896"/><path d="M33.627,0s9.886,10.044-9.406,25.191c-15.466,12.276-3.506,19.292,0,27.265-9.089-8.131-15.624-15.308-11.16-22C19.6,20.567,37.613,15.813,33.627,0Zm-5.073,45.76c4.625,5.261-1.274,10.044-1.274,10.044s11.8-6.058,6.377-13.553c-4.942-7.174-8.773-10.683,11.957-22.64,0,0-32.684,8.131-17.06,26.149Z" transform="translate(11.139 -0.001)" fill="#f58219"/></svg>