<svg xmlns="http://www.w3.org/2000/svg" xmlns:xlink="http://www.w3.org/1999/xlink" width="119.485" height="67.21" viewBox="0 0 119.485 67.21"><defs><clipPath id="a"><path d="M14.4-354.129c0,16.662,25.678,30.17,57.353,30.17h0c31.675,0,57.353-13.508,57.353-30.17h0c0-16.662-25.678-30.17-57.353-30.17h0c-31.675,0-57.353,13.508-57.353,30.17" transform="translate(-14.4 384.299)"/></clipPath><radialGradient id="b" cx="0.628" cy="0.8" r="1.248" gradientTransform="translate(-0.009 0.511) scale(0.526 1)" gradientUnits="objectBoundingBox"><stop offset="0" stop-color="#aeb2d5"/><stop offset="0.3" stop-color="#aeb2d5"/><stop offset="0.75" stop-color="#484c89"/><stop offset="1" stop-color="#484c89"/></radialGradient><clipPath id="c"><path d="M0-405H119.485v67.21H0Z" transform="translate(0 405)"/></clipPath></defs><g transform="translate(0 0)"><g transform="translate(2.39 3.435)"><g transform="translate(0 0)" clip-path="url(#a)"><path d="M14.4-354.129c0,16.662,25.678,30.17,57.353,30.17h0c31.675,0,57.353-13.508,57.353-30.17h0c0-16.662-25.678-30.17-57.353-30.17h0c-31.675,0-57.353,13.508-57.353,30.17" transform="translate(-14.4 384.299)" fill="url(#b)"/></g></g><g transform="translate(0 0)"><g clip-path="url(#c)"><g transform="translate(4.63 5.675)"><path d="M-276.987-280.743c30.437,0,55.112-12.5,55.112-27.93s-24.675-27.93-55.112-27.93-55.112,12.5-55.112,27.93,24.675,27.93,55.112,27.93" transform="translate(332.1 336.603)" fill="#777bb3"/></g></g></g><g transform="translate(0 0)"><g clip-path="url(#c)"><g transform="translate(19.846 19.643)"><path d="M-68.874-87.575c2.5,0,4.371-.462,5.553-1.371a7.422,7.422,0,0,0,2.4-4.637c.395-2.034.244-3.454-.447-4.221-.707-.783-2.235-1.18-4.541-1.18h-4l-2.217,11.409ZM-81.956-73.521a.622.622,0,0,1-.48-.227.622.622,0,0,1-.131-.514L-76.69-104.5a.622.622,0,0,1,.611-.5h12.665c3.98,0,6.943,1.081,8.805,3.213s2.45,5.139,1.718,8.9a14.212,14.212,0,0,1-1.523,4.234,14.176,14.176,0,0,1-2.8,3.512,12.3,12.3,0,0,1-4.613,2.764,20.894,20.894,0,0,1-6.337.815h-5.128l-1.465,7.535a.622.622,0,0,1-.611.5Z" transform="translate(82.578 105)"/></g><g transform="translate(19.224 19.021)"><path d="M-69.384-36.49H-65.9c2.784,0,3.751.611,4.08.975.545.6.648,1.879.3,3.686a6.842,6.842,0,0,1-2.169,4.262c-1.071.824-2.812,1.242-5.174,1.242h-2.5Zm5.981-7.26H-76.068a1.245,1.245,0,0,0-1.222,1.007l-5.876,30.234a1.245,1.245,0,0,0,.261,1.029,1.244,1.244,0,0,0,.96.453h6.586a1.245,1.245,0,0,0,1.222-1.007l1.367-7.031h4.615a21.5,21.5,0,0,0,6.53-.846,12.917,12.917,0,0,0,4.845-2.9,14.8,14.8,0,0,0,2.921-3.663,14.832,14.832,0,0,0,1.591-4.419c.771-3.963.145-7.136-1.861-9.431C-56.115-42.6-59.235-43.75-63.4-43.75m-9.466,18.67h4.006q3.983,0,5.933-1.5A7.97,7.97,0,0,0-60.3-31.592q.654-3.37-.6-4.756t-5-1.386H-70.41L-72.869-25.08M-63.4-42.505q5.715,0,8.337,3t1.576,8.375a13.537,13.537,0,0,1-1.455,4.049,13.5,13.5,0,0,1-2.681,3.357,11.633,11.633,0,0,1-4.384,2.63,20.189,20.189,0,0,1-6.145.785H-73.8l-1.562,8.038h-6.586l5.876-30.234H-63.4" transform="translate(83.189 43.75)" fill="#fff"/></g><g transform="translate(47.884 11.605)"><path d="M-84.187-158.209a.621.621,0,0,1-.48-.227.621.621,0,0,1-.131-.514l2.6-13.378c.247-1.272.186-2.185-.172-2.571-.219-.236-.877-.631-2.823-.631H-89.9l-3.268,16.818a.622.622,0,0,1-.611.5h-6.534a.622.622,0,0,1-.48-.227.622.622,0,0,1-.131-.514l5.876-30.234a.622.622,0,0,1,.611-.5H-87.9a.622.622,0,0,1,.48.226.622.622,0,0,1,.131.515l-1.418,7.3h5.066c3.859,0,6.476.68,8,2.08,1.554,1.428,2.039,3.711,1.441,6.787l-2.734,14.07a.622.622,0,0,1-.611.5Z" transform="translate(100.938 189.688)"/></g><g transform="translate(47.261 10.982)"><path d="M-68.63,0h-6.534a1.245,1.245,0,0,0-1.222,1.007l-5.876,30.234A1.244,1.244,0,0,0-82,32.271a1.244,1.244,0,0,0,.96.453h6.534a1.245,1.245,0,0,0,1.222-1.007l3.17-16.314h4.2c1.942,0,2.35.415,2.366.433.118.127.273.714.017,2.029l-2.6,13.378a1.244,1.244,0,0,0,.261,1.029,1.244,1.244,0,0,0,.96.453h6.638a1.245,1.245,0,0,0,1.222-1.007l2.734-14.07c.642-3.3.093-5.78-1.631-7.364-1.645-1.51-4.4-2.244-8.422-2.244h-4.311l1.274-6.556A1.245,1.245,0,0,0-67.67.453,1.245,1.245,0,0,0-68.63,0m0,1.245-1.562,8.038h5.821q5.494,0,7.58,1.916t1.251,6.21l-2.734,14.069h-6.638l2.6-13.377q.444-2.283-.327-3.113t-3.279-.831H-71.14l-3.366,17.321h-6.534l5.876-30.234h6.534" transform="translate(82.285)" fill="#fff"/></g><g transform="translate(71.253 19.643)"><path d="M-68.874-87.575c2.5,0,4.371-.462,5.553-1.371a7.422,7.422,0,0,0,2.4-4.637c.395-2.034.244-3.454-.447-4.221-.707-.783-2.235-1.18-4.541-1.18h-4l-2.217,11.409ZM-81.955-73.521a.622.622,0,0,1-.48-.227.622.622,0,0,1-.131-.514L-76.69-104.5a.623.623,0,0,1,.611-.5h12.665c3.981,0,6.943,1.081,8.805,3.213s2.45,5.138,1.718,8.9a14.223,14.223,0,0,1-1.523,4.234,14.176,14.176,0,0,1-2.8,3.512,12.3,12.3,0,0,1-4.613,2.764,20.894,20.894,0,0,1-6.337.815h-5.129l-1.464,7.535a.623.623,0,0,1-.611.5Z" transform="translate(82.578 105)"/></g><g transform="translate(70.631 19.021)"><path d="M-69.383-36.49H-65.9c2.784,0,3.751.611,4.08.975.545.6.648,1.879.3,3.685a6.843,6.843,0,0,1-2.169,4.262c-1.071.824-2.812,1.242-5.174,1.242h-2.5Zm5.981-7.26H-76.067a1.245,1.245,0,0,0-1.222,1.007l-5.876,30.234a1.245,1.245,0,0,0,.261,1.029,1.244,1.244,0,0,0,.96.453h6.586a1.245,1.245,0,0,0,1.222-1.007l1.366-7.031h4.615a21.5,21.5,0,0,0,6.53-.846,12.917,12.917,0,0,0,4.845-2.9,14.8,14.8,0,0,0,2.92-3.662,14.832,14.832,0,0,0,1.591-4.419c.771-3.963.145-7.137-1.861-9.432C-56.114-42.6-59.234-43.75-63.4-43.75m-9.466,18.67h4.006q3.983,0,5.933-1.5A7.969,7.969,0,0,0-60.3-31.592q.654-3.37-.6-4.756t-5-1.386h-4.513L-72.868-25.08M-63.4-42.505q5.715,0,8.337,3t1.576,8.375a13.537,13.537,0,0,1-1.455,4.049,13.5,13.5,0,0,1-2.681,3.357,11.633,11.633,0,0,1-4.384,2.63,20.189,20.189,0,0,1-6.145.785H-73.8l-1.562,8.038h-6.586l5.876-30.234H-63.4" transform="translate(83.188 43.75)" fill="#fff"/></g></g></g></g></svg>