<svg xmlns="http://www.w3.org/2000/svg" xmlns:xlink="http://www.w3.org/1999/xlink" width="68.272" height="66.85" viewBox="0 0 68.272 66.85"><defs><linearGradient id="a" x1="1" y1="0.389" x2="0" y2="0.381" gradientUnits="objectBoundingBox"><stop offset="0" stop-color="#366a96"/><stop offset="1" stop-color="#3679b0"/></linearGradient><linearGradient id="b" x1="1" y1="0.5" x2="-0.976" y2="0.5" gradientUnits="objectBoundingBox"><stop offset="0" stop-color="#ffc836"/><stop offset="1" stop-color="#ffe873"/></linearGradient></defs><g transform="translate(0 0)"><path d="M125.2,90.837c0-4.6,1.262-7.106,8.232-8.3a52.631,52.631,0,0,1,16.458,0c4.47.721,8.232,3.976,8.232,8.3v15.184a8.16,8.16,0,0,1-8.232,8.1H133.427a10.32,10.32,0,0,0-10.293,9.92v7.285h-5.659c-4.787,0-7.574-3.374-8.744-8.1a28.866,28.866,0,0,1,0-16.2,10.224,10.224,0,0,1,10.287-8.1h22.641V96.911H125.195V90.837Z" transform="translate(-107.572 -81.892)" fill="url(#a)"/><path d="M148.74,130.36c0,4.6-4.085,6.934-8.232,8.1a28.439,28.439,0,0,1-16.458,0c-4.354-1.24-8.232-3.774-8.232-8.1V115.176a8.262,8.262,0,0,1,8.232-8.1h16.458A10.409,10.409,0,0,0,150.8,96.952V89.869h6.171c4.793,0,7.049,3.481,8.232,8.1,1.646,6.409,1.719,11.2,0,16.2-1.665,4.853-3.445,8.1-8.232,8.1h-24.69v2.027H148.74v6.074Z" transform="translate(-98.195 -72.822)" fill="url(#b)"/><path d="M117.744,87.224a3.086,3.086,0,1,1,3.086,3.035A3.06,3.06,0,0,1,117.744,87.224Zm18.518,50.608a3.086,3.086,0,1,1,3.086,3.041A3.062,3.062,0,0,1,136.263,137.832Z" transform="translate(-96.005 -79.287)" fill="#fff"/></g></svg>